<?xml version="1.0" encoding="UTF-8"?><svg id="a" xmlns="http://www.w3.org/2000/svg" viewBox="0 0 800 400"><g id="b"><polygon points="27.5 310.8 1.4 316.57 67.28 362.23 428.81 395.17 754.79 365.3 800 315.52 527.87 278.07 215.74 272.66 27.5 310.8" style="fill:#dddfe2; fill-rule:evenodd;"/></g><g id="c"><polygon points="42.7 315.46 81.86 322.32 91.56 315.38 97.94 325.14 132.77 325.09 209.49 309.23 250.81 302 194.76 276.91 39.95 308.28 42.7 315.46" style="fill:#1d2432; fill-rule:evenodd; opacity:.1;"/><polygon points="278 325.09 267.77 327.23 244.94 328.84 218.01 331.47 183.53 342 172.9 352.4 196.19 373.98 428.81 395.17 571.79 344.25 459.79 332.54 335.78 325.96 322.9 327.56 298.98 326.17 278 325.09" style="fill:#1d2432; fill-rule:evenodd; opacity:.1;"/><polygon points="640.21 330.32 646.35 337.36 697.29 344.15 714.12 336.24 712.83 346.22 777.9 339.85 800 315.52 778.41 312.55 655.53 328.96 640.21 330.32" style="fill:#1d2432; fill-rule:evenodd; opacity:.1;"/><polygon points="559.42 320.76 566.03 326.21 652.95 323.32 683.94 307.72 644.96 296.2 429.23 276.54 384.35 299.41 549.16 323.92 559.42 320.76" style="fill:#1d2432; fill-rule:evenodd; opacity:.1;"/></g><g id="d"><polygon points="666.37 171.02 641.77 169.01 629.52 170.17 624.57 167.6 587.84 164.59 572.02 165.63 567.26 162.91 535.33 160.3 519.23 161.86 516.43 158.75 435.69 152.15 393.82 163.59 649.67 188.19 666.37 171.02" style="fill:#b7a0c2; fill-rule:evenodd;"/><polygon points="566.03 326.21 579.36 323.92 588.45 296.2 561.99 296.2 566.03 326.21" style="fill:#51596a; fill-rule:evenodd;"/><polygon points="566.9 308.57 566.03 326.21 549.16 323.92 543.41 297.11 566.9 308.57" style="fill:#5f6878; fill-rule:evenodd;"/><polygon points="566.9 308.57 655.78 295.01 666.37 171.02 649.49 177.71 615.11 244.92 558.15 272.01 566.9 308.57" style="fill:#88619a; fill-rule:evenodd;"/><polygon points="570.35 278.07 566.9 308.57 534.9 305.35 521.87 292.62 509.48 302.79 362.7 287.99 363.54 259.66 519.5 267.77 570.35 278.07" style="fill:#9f80ae; fill-rule:evenodd;"/><polygon points="442.32 160.37 649.49 177.71 638.55 258.25 527.36 261.32 416.4 236.02 442.32 160.37" style="fill:#9f80ae; fill-rule:evenodd;"/><polygon points="638.55 258.25 570.35 278.07 363.54 259.66 416.4 236.02 638.55 258.25" style="fill:#b7a0c2; fill-rule:evenodd;"/><polygon points="595.42 173.18 624.57 167.6 641.77 169.01 621.76 175.39 604.2 179.58 595.42 173.18" style="fill:#b3889d; fill-rule:evenodd;"/><polygon points="546.62 169.1 567.26 162.91 587.84 164.59 564.11 170.56 553.21 174.86 546.62 169.1" style="fill:#b3889d; fill-rule:evenodd;"/><polygon points="492.99 164.75 516.43 158.75 535.33 160.37 514.2 166.38 500.17 169.1 492.99 164.75" style="fill:#b3889d; fill-rule:evenodd;"/><polygon points="621.76 175.39 602.42 254.63 587.87 255.06 585 252.89 595.42 173.18 621.76 175.39" style="fill:#96637c; fill-rule:evenodd;"/><polygon points="564.11 170.56 553.21 249.71 538.51 251.25 532.95 247.68 546.62 169.1 564.11 170.56" style="fill:#96637c; fill-rule:evenodd;"/><polygon points="514.2 166.38 501.89 244.57 488.26 244.92 486.13 243 492.99 164.75 514.2 166.38" style="fill:#96637c; fill-rule:evenodd;"/><polygon points="434.4 265.97 501.89 244.57 493.36 243.72 486.13 243 413.85 264.14 423.83 272.01 434.4 265.97" style="fill:#b3889d; fill-rule:evenodd;"/><polygon points="488.57 270.79 553.21 249.71 549.05 249.29 532.95 247.68 463.5 268.56 475.62 275.28 488.57 270.79" style="fill:#b3889d; fill-rule:evenodd;"/><polygon points="516.43 273.27 528.86 280.29 538.98 275.28 602.42 254.63 585 252.89 550.78 261.32 516.43 273.27" style="fill:#b3889d; fill-rule:evenodd;"/><polygon points="538.98 275.28 534.9 305.35 509.48 302.79 516.43 273.27 538.98 275.28" style="fill:#96637c; fill-rule:evenodd;"/><polygon points="463.5 268.56 459.57 297.76 482.01 300.02 488.57 270.79 463.5 268.56" style="fill:#96637c; fill-rule:evenodd;"/><polygon points="434.4 265.97 432.08 294.98 409.46 292.71 413.85 264.14 434.4 265.97" style="fill:#96637c; fill-rule:evenodd;"/></g><g id="e"><polygon points="42.7 315.46 60.46 311.99 66.52 286.54 41.47 286.54 42.7 315.46" style="fill:#5f6878; fill-rule:evenodd;"/><polygon points="119.03 300.84 139.73 296.8 203.52 284.57 207.63 301.07 226.17 297.31 225.28 252.2 91.56 279.67 97.94 325.14 114.45 321.31 119.03 300.84" style="fill:#576071; fill-rule:evenodd;"/><polygon points="66.11 270.78 22.32 265.96 26.33 311.06 42.7 315.46 48.14 295.74 76.91 300.4 81.86 322.32 97.94 325.14 100.05 284.11 66.11 270.78" style="fill:#787f8d; fill-rule:evenodd;"/><polygon points="15.53 246.83 12.36 269.77 100.05 284.11 114.19 252.72 15.53 246.83" style="fill:#96637c; fill-rule:evenodd;"/><polygon points="97.67 261.84 146.91 242.5 233.94 236.86 232.55 259.04 100.05 284.11 97.67 261.84" style="fill:#734d61; fill-rule:evenodd;"/><polygon points="15.53 246.83 61.6 238.47 90.22 228.23 126.93 226.61 233.94 236.86 97.67 261.84 15.53 246.83" style="fill:#b3889d; fill-rule:evenodd;"/><polygon points="55.79 242.64 69.39 245.13 84.19 242.64 72.26 239 55.79 242.64" style="fill:#1d2432; fill-rule:evenodd; opacity:.1;"/><g><polygon points="189.75 228.25 190.4 236.86 108.93 252.13 102.76 238.47 189.75 228.25" style="fill:#787f8d; fill-rule:evenodd;"/><polygon points="108.26 242.64 101.7 237.1 69.16 237.1 69.39 245.13 108.93 252.13 108.26 242.64" style="fill:#9a9fa9; fill-rule:evenodd;"/><polygon points="55.79 173.28 49.1 176.23 61.6 238.47 69.16 237.1 67.12 211.5 55.79 173.28" style="fill:#9a9fa9; fill-rule:evenodd;"/><polygon points="149.73 223.35 189.75 228.25 108.26 242.64 69.16 237.1 115.8 224.74 149.73 223.35" style="fill:#abafb8; fill-rule:evenodd;"/><polygon points="55.79 173.28 137.1 165.37 149.73 223.35 69.16 237.1 55.79 173.28" style="fill:#787f8d; fill-rule:evenodd;"/><polygon points="90.22 236.04 150 226.34 170.61 229.17 108.53 239 90.22 236.04" style="fill:#cccfd4; fill-rule:evenodd;"/><g><polygon points="93.45 238.06 162.26 226.48 164.95 226.75 96.14 238.6 93.45 238.06" style="fill:#abafb8; fill-rule:evenodd;"/><polygon points="100.58 233.62 124.02 237.25 128.32 236.98 103.41 232.54 100.58 233.62" style="fill:#abafb8; fill-rule:evenodd;"/><polygon points="116.21 230.79 140.85 234.69 143.14 234.02 119.98 230.25 116.21 230.79" style="fill:#abafb8; fill-rule:evenodd;"/><polygon points="132.77 228.36 156.33 232.27 158.22 231.73 135.6 227.83 132.77 228.36" style="fill:#abafb8; fill-rule:evenodd;"/></g><polygon points="66.52 180.16 131.12 172.44 141.52 218.26 76.1 228.47 66.52 180.16" style="fill:#dbcfe0; fill-rule:evenodd;"/><g><polygon points="76.91 186.37 102.36 183.01 109.23 216.4 82.83 220.85 76.91 186.37" style="fill:#f7f5f6; fill-rule:evenodd;"/><polygon points="108.99 187.15 120.13 183.53 127.4 184.89 133.33 212.5 114.88 215.32 108.99 187.15" style="fill:#f7f5f6; fill-rule:evenodd;"/><polygon points="126.33 179.91 108.01 182.47 108.99 187.15 127.4 184.89 126.33 179.91" style="fill:#96637c; fill-rule:evenodd;"/><polygon points="84.19 192.11 99.04 189.99 99.24 191.91 84.59 193.93 84.19 192.11" style="fill:#ab90b8; fill-rule:evenodd;"/><polygon points="85.1 196.85 99.74 194.53 100.05 196.75 85.3 198.67 85.1 196.85" style="fill:#ab90b8; fill-rule:evenodd;"/><polygon points="85.91 201.2 100.25 199.18 100.75 201.1 86.31 203.12 85.91 201.2" style="fill:#ab90b8; fill-rule:evenodd;"/><polygon points="87.12 205.84 95.6 204.33 95.6 206.25 87.32 207.56 87.12 205.84" style="fill:#ab90b8; fill-rule:evenodd;"/><polygon points="114.32 191.6 116.54 191.33 117.01 193.42 114.59 193.76 114.32 191.6" style="fill:#787f8d; fill-rule:evenodd;"/><polygon points="115.4 196.92 117.69 196.52 117.96 198.74 115.67 199.01 115.4 196.92" style="fill:#4fa9aa; fill-rule:evenodd;"/><polygon points="116.34 201.97 118.49 201.57 119.03 203.99 116.81 204.33 116.34 201.97" style="fill:#96637c; fill-rule:evenodd;"/><polygon points="117.55 207.36 119.71 207.09 120.18 209.38 117.89 209.85 117.55 207.36" style="fill:#33a474; fill-rule:evenodd;"/><polygon points="121.05 191.25 125.75 190.54 125.85 191.6 121.2 192.26 121.05 191.25" style="fill:#ab90b8; fill-rule:evenodd;"/><polygon points="121.96 196.35 126.46 195.59 126.66 196.65 122.11 197.41 121.96 196.35" style="fill:#ab90b8; fill-rule:evenodd;"/><polygon points="122.97 201.7 127.16 200.94 127.36 202 123.12 202.56 122.97 201.7" style="fill:#ab90b8; fill-rule:evenodd;"/><polygon points="123.98 207.16 128.17 206.45 128.27 207.36 124.03 208.11 123.98 207.16" style="fill:#ab90b8; fill-rule:evenodd;"/></g></g></g><g id="f"><g><polygon points="646.35 337.36 665.16 334.64 671.89 313.39 647.92 315.25 646.35 337.36" style="fill:#576071; fill-rule:evenodd;"/><polygon points="763.64 333.52 747.84 332.14 745.14 312.55 760.77 311.21 763.64 333.52" style="fill:#787f8d; fill-rule:evenodd;"/><polygon points="736.39 322.71 758.34 316.25 763.64 333.52 779.62 329.52 773.69 246.18 709.6 254.92 712.83 346.22 732.12 341.4 736.39 322.71" style="fill:#576071; fill-rule:evenodd;"/><polygon points="729.52 253.69 734.91 304.83 759.42 300.46 760.77 248.19 729.52 253.69" style="fill:#787f8d; fill-rule:evenodd;"/><polygon points="689.13 252.23 637.96 246.18 632.03 335.45 646.35 337.36 655.19 318.55 690.2 323.87 697.29 344.15 712.83 346.22 715.25 261.75 689.13 252.23" style="fill:#787f8d; fill-rule:evenodd;"/><polygon points="625.84 230.61 627.18 251.58 715.25 261.75 737.47 238.33 625.84 230.61" style="fill:#347990; fill-rule:evenodd;"/><polygon points="715.25 261.75 787.81 250.59 790.12 230.41 730.2 232.52 716.33 243.41 715.25 261.75" style="fill:#2a6275; fill-rule:evenodd;"/><polygon points="625.84 230.61 705.02 221.63 790.12 230.41 716.33 243.41 625.84 230.61" style="fill:#3b88a1; fill-rule:evenodd;"/><polygon points="653.58 265.96 698.55 269.73 695.59 309.05 651.15 303.4 653.58 265.96" style="fill:#735283; fill-rule:evenodd;"/><polygon points="679.43 288.18 685.36 283.47 690.74 289.39 683.88 294.24 679.43 288.18" style="fill:#9f80ae; fill-rule:evenodd;"/></g><polygon points="732.88 235.03 760.77 227.38 734.94 224.49 712.72 224.49 708.99 233.71 732.88 235.03" style="fill:#1d2432; fill-rule:evenodd; opacity:.1;"/><g><polygon points="694.55 159.89 675.53 143.26 673.34 148.37 692.43 164.43 694.55 159.89" style="fill:#2d9368; fill-rule:evenodd;"/><polygon points="718.21 159.05 725.08 145.58 727.77 148.95 720.33 164.43 718.21 159.05" style="fill:#33a474; fill-rule:evenodd;"/><polygon points="709.06 151.91 707.31 133.46 703.47 135.35 705.42 154.74 709.06 151.91" style="fill:#33a474; fill-rule:evenodd;"/><polygon points="694.55 159.89 691.01 147.87 709.06 151.91 715.25 164.99 715.92 172.65 706.36 177.76 694.55 159.89" style="fill:#28835c; fill-rule:evenodd;"/><polygon points="710.75 174.03 704.77 160.94 701.91 166.31 710.54 176.01 712.72 174.67 710.75 174.03" style="fill:#709d52; fill-rule:evenodd;"/><polygon points="717.14 179.6 694.55 159.89 666.37 171.02 681.65 174.13 702.82 183.78 717.14 179.6" style="fill:#33a474; fill-rule:evenodd;"/><polygon points="701.91 166.31 690.33 169.44 710.75 174.03 701.91 166.31" style="fill:#a0cf7e; fill-rule:evenodd;"/><polygon points="707.98 179.58 718.21 159.05 744.67 171.75 732.68 174.13 719.29 179.58 707.98 179.58" style="fill:#5bb68f; fill-rule:evenodd;"/><polygon points="710.75 174.03 727.17 169.59 715.25 164.99 710.75 174.03" style="fill:#c0db8e; fill-rule:evenodd;"/><polygon points="683.69 197.26 676.87 215.26 687.38 226.04 708.99 233.71 712.22 218.56 708.99 190.24 683.69 197.26" style="fill:#68707f; fill-rule:evenodd;"/><polygon points="708.99 190.24 732.68 196.93 740.14 215.11 728.81 224.09 708.99 233.71 706.36 220.79 708.99 190.24" style="fill:#545c6d; fill-rule:evenodd;"/><polygon points="676.87 215.26 706.36 220.79 711.79 226.73 708.99 233.71 683.34 229.07 676.87 215.26" style="fill:#545c6d; fill-rule:evenodd;"/><polygon points="706.36 220.79 740.14 215.11 731.66 230.41 708.99 233.71 706.36 220.79" style="fill:#454d5d; fill-rule:evenodd;"/><polygon points="687.78 186.45 681.65 174.13 707.98 179.58 712.72 191.29 697.07 191.9 687.78 186.45" style="fill:#576071; fill-rule:evenodd;"/><polygon points="707.98 179.58 732.68 174.13 728.38 186.45 714.87 191.9 708.99 190.24 707.98 179.58" style="fill:#454d5d; fill-rule:evenodd;"/><polygon points="687.78 186.45 708.99 190.24 712.72 195.9 707.98 201.99 683.69 197.26 687.78 186.45" style="fill:#9471a4; fill-rule:evenodd;"/><polygon points="708.99 190.24 728.38 186.45 732.68 196.93 707.98 201.99 708.99 190.24" style="fill:#815c92; fill-rule:evenodd;"/><polygon points="680.78 114.88 700.98 109.49 726.32 116.49 701.98 125.38 680.78 114.88" style="fill:#654873; fill-rule:evenodd;"/><polygon points="704.09 141.54 691.01 135.75 680.78 114.88 701.91 120.53 706.77 129.02 704.09 141.54" style="fill:#96637c; fill-rule:evenodd;"/><polygon points="704.09 141.54 718.21 135.08 726.32 116.49 701.91 120.53 704.09 141.54" style="fill:#734d61; fill-rule:evenodd;"/><polygon points="701.91 120.53 697.19 100.47 706.77 97.51 701.91 120.53" style="fill:#4b9db7; fill-rule:evenodd;"/><polygon points="673.34 115.82 655.87 127.54 644.96 144.1 668.79 140.19 673.34 115.82" style="fill:#654873; fill-rule:evenodd;"/><polygon points="676.87 151.35 663.81 152.99 644.96 144.1 667.04 136.15 672.54 138.82 676.87 151.35" style="fill:#96637c; fill-rule:evenodd;"/><polygon points="676.87 151.35 681.65 137.37 673.34 115.82 667.04 136.15 676.87 151.35" style="fill:#734d61; fill-rule:evenodd;"/><polygon points="667.04 136.15 649.67 127.13 653.85 118.11 667.04 136.15" style="fill:#4b9db7; fill-rule:evenodd;"/><polygon points="735.31 120.53 752.69 129.02 759.42 146.25 740.46 143.26 735.31 120.53" style="fill:#654873; fill-rule:evenodd;"/><polygon points="725.83 152.99 722.39 139.39 735.31 120.53 741.37 141.54 737.47 148.95 725.83 152.99" style="fill:#96637c; fill-rule:evenodd;"/><polygon points="725.83 152.99 742.32 155.41 759.42 146.25 741.37 141.54 725.83 152.99" style="fill:#734d61; fill-rule:evenodd;"/><polygon points="741.37 141.54 759.42 127.54 750.94 123.09 741.37 141.54" style="fill:#4b9db7; fill-rule:evenodd;"/></g></g><g id="g"><polygon points="220.16 116.17 218.01 158.72 224.47 156.3 224.47 114.28 220.16 116.17" style="fill:#9a9fa9; fill-rule:evenodd;"/><polygon points="218.52 148.49 224.47 150.1 227.36 160.2 216.46 163.23 218.52 148.49" style="fill:#68707f; fill-rule:evenodd;"/><polygon points="129.67 320.66 126.71 333.93 187.57 344.41 198.08 326.37 129.67 320.66" style="fill:#9471a4; fill-rule:evenodd;"/><polygon points="188.69 330.8 206.69 319.65 241.71 315.43 244.94 328.84 187.57 344.41 188.69 330.8" style="fill:#7a578a; fill-rule:evenodd;"/><polygon points="129.67 320.66 192.33 305.4 241.71 315.43 188.69 330.8 129.67 320.66" style="fill:#b7a0c2; fill-rule:evenodd;"/><polygon points="186.5 135.69 202.52 125.2 201.4 183.23 194.52 201.21 200.8 214.34 198.88 313.4 190.54 315.38 183.53 213.97 186.5 135.69" style="fill:#317186; fill-rule:evenodd;"/><polygon points="186.5 135.69 190.54 315.38 180.3 313.96 173.7 213.35 179.86 200.19 171.73 183.23 167.64 120.99 186.5 135.69" style="fill:#3b88a1; fill-rule:evenodd;"/><polygon points="145.29 29.18 187.73 17.6 236.05 29.18 188.69 48.6 145.29 29.18" style="fill:#b3889d; fill-rule:evenodd;"/><polygon points="145.29 29.18 129.42 69.52 135.46 85.92 116.73 101.77 109.74 119.55 186.5 135.69 204.54 82.44 192.69 41.65 145.29 29.18" style="fill:#96637c; fill-rule:evenodd;"/><polygon points="192.69 41.65 236.05 29.18 250.06 69.52 244.53 87.89 260.08 98.36 266.12 115.77 186.5 135.69 192.69 41.65" style="fill:#734d61; fill-rule:evenodd;"/><polygon points="129.42 69.52 189.73 86.66 192.02 111.6 123.87 83.64 129.42 69.52" style="fill:#ab90b8; fill-rule:evenodd;"/><polygon points="123.87 83.64 188.69 102.32 198.88 107.83 187.73 116.99 116.73 101.77 123.87 83.64" style="fill:#33a474; fill-rule:evenodd;"/><polygon points="189.73 86.66 250.06 69.52 254.55 82.44 218.54 101.77 188.69 102.32 189.73 86.66" style="fill:#9471a4; fill-rule:evenodd;"/><polygon points="188.69 102.32 254.55 82.44 260.08 98.36 187.73 116.99 188.69 102.32" style="fill:#28835c; fill-rule:evenodd;"/><polygon points="167.64 29.13 189.92 24.11 213.43 29.13 188.42 34.99 167.64 29.13" style="fill:#734d61; fill-rule:evenodd;"/><polygon points="171.73 183.23 187.64 186.46 190.54 208.12 172.79 199.38 171.73 183.23" style="fill:#88619a; fill-rule:evenodd;"/><polygon points="172.79 199.38 188 202.62 193.03 209.69 188.35 218.19 173.7 213.35 172.79 199.38" style="fill:#735283; fill-rule:evenodd;"/><polygon points="187.64 186.46 201.4 183.23 201.11 198.39 193.84 205.65 188 202.62 187.64 186.46" style="fill:#735283; fill-rule:evenodd;"/><polygon points="188 202.62 201.11 198.39 200.8 214.34 188.35 218.19 188 202.62" style="fill:#5e436b; fill-rule:evenodd;"/></g><g id="h"><polygon points="498.75 143.25 434.85 136.16 399.41 123.67 380.99 136.24 369.3 153.68 480.31 156.03 498.75 143.25" style="fill:#9a9fa9; fill-rule:evenodd;"/><polygon points="472.38 343.24 454.74 341.97 445.92 302.71 474.72 298.4 472.38 343.24" style="fill:#68707f; fill-rule:evenodd;"/><polygon points="320.85 300.41 313.61 343.37 360.04 314.35 375.71 315.38 395.11 359.68 405.74 360.57 409.09 314.03 320.85 300.41" style="fill:#68707f; fill-rule:evenodd;"/><polygon points="343.55 349.03 338.39 308.57 363.69 316.63 356.6 346.11 343.55 349.03" style="fill:#545c6d; fill-rule:evenodd;"/><polygon points="360.04 162.5 357.94 188.19 361.44 257.47 469.51 271.55 472.43 150.89 364.98 140.69 360.04 162.5" style="fill:#68707f; fill-rule:evenodd;"/><polygon points="377.46 153.45 368.96 253.66 434.2 262.42 444.04 183.87 447.23 163.26 411.27 157.79 377.46 153.45" style="fill:#89909b; fill-rule:evenodd;"/><polygon points="472.43 150.89 498.75 143.25 483.34 277.59 486.16 339.51 472.38 343.24 458.85 289.16 462.84 248.54 454.46 242.22 465.17 224.79 472.43 150.89" style="fill:#545c6d; fill-rule:evenodd;"/></g><g id="i"><polygon points="504.64 29 576.89 .66 647.11 15.98 657.06 99.6 621.45 152.83 502.72 132.91 487.28 76.74 504.64 29" style="fill:#eeeff1; fill-rule:evenodd;"/><g><polygon points="520.34 111.6 523.66 53.13 536.17 53.89 533.36 112.62 520.34 111.6" style="fill:#72cbcc; fill-rule:evenodd;"/><polygon points="546.38 44.83 543.06 113.13 555.06 113.89 559.66 45.72 546.38 44.83" style="fill:#96637c; fill-rule:evenodd;"/><polygon points="564.77 113.96 567.45 54.98 580.85 55.36 577.4 115.11 564.77 113.96" style="fill:#4b9db7; fill-rule:evenodd;"/><polygon points="586.47 115.43 591.06 39.34 604.09 39.85 599.49 116.45 586.47 115.43" style="fill:#33a474; fill-rule:evenodd;"/><polygon points="609.45 116.7 614.55 24.53 628.34 25.3 622.98 117.47 609.45 116.7" style="fill:#8e699f; fill-rule:evenodd;"/><g><polygon points="519.83 119.26 533.11 120.17 532.98 125.06 519.19 123.68 519.83 119.26" style="fill:#89909b; fill-rule:evenodd;"/><polygon points="542.55 121.09 553.91 122.46 553.53 127.35 542.17 126.12 542.55 121.09" style="fill:#89909b; fill-rule:evenodd;"/><polygon points="564.38 123.22 576.64 124.6 576.13 129.48 563.74 127.96 564.38 123.22" style="fill:#89909b; fill-rule:evenodd;"/><polygon points="586.47 125.21 598.6 126.58 598.34 131.16 585.7 130.09 586.47 125.21" style="fill:#89909b; fill-rule:evenodd;"/><polygon points="608.55 127.5 622.21 128.26 621.96 133.3 607.91 132.23 608.55 127.5" style="fill:#89909b; fill-rule:evenodd;"/></g></g><polygon points="458.17 58.36 471.19 52.49 477.83 68.83 459.7 72.15 458.17 58.36" style="fill:#eeeff1; fill-rule:evenodd;"/></g><g id="j"><polygon points="435.95 252.12 426.33 180.35 445.82 172.38 472.51 221.15 435.95 252.12" style="fill:#734d60; fill-rule:evenodd;"/><polygon points="325.94 182.89 318.93 219.91 321.48 235.98 339.28 251.51 353.26 206.44 349.01 166.85 325.94 182.89" style="fill:#734d60; fill-rule:evenodd;"/><polygon points="382.49 188.21 364.99 162.98 344.68 169.45 339.28 251.51 389.35 257.21 435.95 252.12 434.68 188.46 419.52 173.17 414.34 158.81 382.49 188.21" style="fill:#96637c; fill-rule:evenodd;"/><polygon points="363.06 178.99 330.96 180.69 334 170.38 363.39 166.49 363.06 178.99" style="fill:#583f64; fill-rule:evenodd;"/><polygon points="316.16 298.21 354.56 313.07 347.59 339.43 333.96 339.97 322.79 331.81 316.16 298.21" style="fill:#543042; fill-rule:evenodd;"/><polygon points="404.91 316.14 364.93 321.28 372.8 342.87 383.92 347.8 398.89 346.64 404.91 316.14" style="fill:#734d60; fill-rule:evenodd;"/><polygon points="347.59 353.44 327.4 355.25 294.41 353.44 322.79 331.81 347.59 339.43 347.59 353.44" style="fill:#7a578a; fill-rule:evenodd;"/><rect x="294.41" y="353.44" width="53.18" height="6.93" transform="translate(642 713.81) rotate(-180)" style="fill:#583f64;"/><polygon points="372.8 342.87 361.96 363.15 380.86 365.16 401.76 363.15 398.89 346.64 372.8 342.87" style="fill:#9471a4; fill-rule:evenodd;"/><rect x="361.96" y="363.15" width="39.8" height="6.55" transform="translate(763.71 732.86) rotate(-180)" style="fill:#583f64;"/><polygon points="362.31 225.07 356.8 251.62 412.57 251.97 407.68 232.28 396.69 201.41 382.49 188.21 370.18 201.41 362.31 225.07" style="fill:#734d60; fill-rule:evenodd;"/><polygon points="400.48 171.6 434.68 188.46 445.82 172.38 411.27 157.79 400.48 171.6" style="fill:#583f64; fill-rule:evenodd;"/><polygon points="411.27 157.79 407.68 232.28 382.49 188.21 411.27 157.79" style="fill:#b3889d; fill-rule:evenodd;"/><polygon points="382.49 188.21 362.31 225.07 363.39 166.49 382.49 188.21" style="fill:#b3889d; fill-rule:evenodd;"/><polygon points="380.34 210.04 376.73 216.65 383.34 221.15 388.15 214.24 380.34 210.04" style="fill:#b3889d; fill-rule:evenodd;"/><polygon points="382.64 229.47 389.25 233.67 384.14 240.28 378.43 236.08 382.64 229.47" style="fill:#b3889d; fill-rule:evenodd;"/><polygon points="382.49 188.21 343.63 169.78 363.39 166.49 382.49 188.21" style="fill-rule:evenodd; opacity:.1;"/><polygon points="424.32 114.18 414.43 111.52 398.41 123.67 408.59 133.24 434.85 136.15 424.32 114.18" style="fill:#583f64; fill-rule:evenodd;"/><polygon points="299.99 77.4 304.93 100.92 327.38 172.9 363.39 166.49 382.49 188.21 404.41 152.26 394.93 113.28 388.56 110.61 384.91 92.16 386.25 64.38 355.07 48.62 325.56 65.69 319.41 49.78 299.99 77.4" style="fill:#dfbda5; fill-rule:evenodd;"/><polygon points="385.12 64.84 367.15 99.1 371.32 167.99 382.49 188.21 411.27 157.79 408.58 133.24 406.19 127.97 407.24 122.69 416.54 121.31 416.38 97.12 400.74 97.06 394.93 111.02 389.92 111.51 385.81 92.39 385.12 64.84" style="fill:#c3987b; fill-rule:evenodd;"/><polygon points="314.46 108.59 332.95 102.91 367.15 99.1 353.26 113.57 346.03 137.87 314.46 108.59" style="fill:#c3987b; fill-rule:evenodd;"/><polygon points="370.18 149.11 344.32 157.79 325.78 155.81 343.18 146.73 370.18 149.11" style="fill:#8b6651; fill-rule:evenodd;"/><polygon points="370.18 149.11 346.03 137.87 340.5 139.91 335.33 139.9 325.78 155.81 370.18 149.11" style="fill:#7a578a; fill-rule:evenodd;"/><polygon points="338.27 104.3 346.03 137.87 340.55 140.9 335.33 139.9 329.83 105.82 338.27 104.3" style="fill:#e8cab6; fill-rule:evenodd;"/><polygon points="367.15 99.1 314.46 108.59 312.78 101.77 363.63 95.63 367.15 99.1" style="fill:#7a578a; fill-rule:evenodd;"/><polygon points="335.32 139.85 341.66 143.08 346.03 137.87 335.32 139.85" style="fill:#583f64; fill-rule:evenodd;"/><polygon points="412.15 102.24 404.26 102.46 402.34 118.05 412.15 102.24" style="fill:#8b6651; fill-rule:evenodd;"/><polygon points="363.39 166.49 388.75 161.95 382.49 188.21 363.39 166.49" style="fill:#8b6651; fill-rule:evenodd;"/><polygon points="407.24 122.69 399.41 123.67 408.59 133.24 407.24 122.69" style="fill:#8b6651; fill-rule:evenodd;"/><polygon points="301.8 77.18 295.63 67.15 282.57 58.52 304.93 100.92 301.8 77.18" style="fill:#a688ba; fill-rule:evenodd;"/><polygon points="385.12 64.84 403.36 54.13 433.11 45 427.52 89.01 402.17 92.68 381.3 92.39 385.12 64.84" style="fill:#9471a4; fill-rule:evenodd;"/><polygon points="301.8 77.18 319.31 55.65 329.81 45.77 340.55 29.53 282.57 58.52 301.8 77.18" style="fill:#7a578a; fill-rule:evenodd;"/><polygon points="385.12 64.84 353.26 53.36 371.6 37.8 395.5 28.49 433.11 45 385.12 64.84" style="fill:#7a578a; fill-rule:evenodd;"/><polygon points="340.55 29.53 375.42 12.1 395.5 28.49 353.26 53.36 323.3 70.66 319.31 55.65 340.55 29.53" style="fill:#9471a4; fill-rule:evenodd;"/><polygon points="381.3 92.39 427.52 89.01 424.32 114.18 416.54 121.31 415.36 98.14 400.74 99.1 396.97 114.63 388.11 113.31 381.3 92.39" style="fill:#7a578a; fill-rule:evenodd;"/><circle cx="324" cy="120.18" r="4.13" style="fill:#232a38;"/><circle cx="353.1" cy="114.59" r="4.13" style="fill:#232a38;"/></g><g id="k"><polygon points="285.16 330.29 298.98 326.17 305.29 272.24 281.07 272.24 285.16 330.29" style="fill:#5f6878; fill-rule:evenodd;"/><polygon points="259.79 276.88 267.77 327.23 285.16 330.29 284.53 276.54 259.79 276.88" style="fill:#89909b; fill-rule:evenodd;"/><polygon points="480.31 299.24 486.13 355.76 503.59 358.06 503.43 291 480.31 299.24" style="fill:#89909b; fill-rule:evenodd;"/><polygon points="503.59 358.06 501.41 288.47 525.65 282.11 517.57 353.3 503.59 358.06" style="fill:#5f6878; fill-rule:evenodd;"/><polygon points="420.65 386.09 438.65 379.62 452.47 307.72 415.93 315.52 420.65 386.09" style="fill:#5f6878; fill-rule:evenodd;"/><polygon points="395.68 314.35 401.78 382.86 420.65 386.09 426.95 328.57 395.68 314.35" style="fill:#89909b; fill-rule:evenodd;"/><polygon points="190.4 354.7 205.21 349.71 212.22 283.46 180.17 279.59 190.4 354.7" style="fill:#5f6878; fill-rule:evenodd;"/><polygon points="157.54 282.11 172.9 352.4 190.4 354.7 187.71 289.65 157.54 282.11" style="fill:#89909b; fill-rule:evenodd;"/><g><polygon points="133.64 265.66 284.12 232.08 395.68 244.32 430.34 252.89 465.48 251.97 550.78 261.32 430.09 316.45 133.64 265.66" style="fill:#72cbcc; fill-rule:evenodd;"/><polygon points="133.64 265.66 140.13 296.73 426.95 328.57 438.98 312.41 430.09 301.23 133.64 265.66" style="fill:#4fa9aa; fill-rule:evenodd;"/><polygon points="426.95 328.57 546.29 288.47 550.78 261.32 430.09 301.23 426.95 328.57" style="fill:#359496; fill-rule:evenodd;"/></g><g><polygon points="307.02 247.04 354.66 253.27 393.36 257.66 379.8 288.47 274.06 274.27 307.02 247.04" style="fill:#f6f6f7; fill-rule:evenodd;"/><polygon points="373.39 281.02 349.93 277.83 351.12 276.77 373.97 279.73 373.39 281.02" style="fill:#89909b; fill-rule:evenodd;"/><polygon points="374.77 277.28 352.71 274.43 353.66 273.31 375.29 276.06 374.77 277.28" style="fill:#89909b; fill-rule:evenodd;"/><polygon points="376.39 273.84 362.38 272.03 363.33 270.91 377.15 272.61 376.39 273.84" style="fill:#89909b; fill-rule:evenodd;"/><polygon points="340.6 276.4 344.04 272.83 334.85 271.68 331.53 275.51 340.6 276.4" style="fill:#67acc3; fill-rule:evenodd;"/><polygon points="321.06 273.98 324 270.79 315.32 269.38 312 272.7 321.06 273.98" style="fill:#96637c; fill-rule:evenodd;"/><polygon points="301.15 271.17 305.36 268.23 296.43 266.83 292.21 270.28 301.15 271.17" style="fill:#33a474; fill-rule:evenodd;"/><g><polygon points="346.34 268.87 347.74 267.47 341.62 266.45 339.96 268.11 346.34 268.87" style="fill:#89909b; fill-rule:evenodd;"/><polygon points="349.79 264.02 350.94 262.49 342.26 261.47 340.98 262.87 349.79 264.02" style="fill:#89909b; fill-rule:evenodd;"/></g><g><polygon points="326.81 266.57 318.51 265.68 319.91 264.15 328.09 265.04 326.81 266.57" style="fill:#89909b; fill-rule:evenodd;"/><polygon points="330.38 261.6 332.17 260.19 324.35 259.11 322.91 260.54 330.38 261.6" style="fill:#89909b; fill-rule:evenodd;"/><polygon points="334.34 257.38 335.62 255.98 330.51 255.34 329.23 256.62 334.34 257.38" style="fill:#89909b; fill-rule:evenodd;"/></g><g><polygon points="300.26 263 308.43 264.02 309.96 262.62 302.17 261.47 300.26 263" style="fill:#89909b; fill-rule:evenodd;"/><polygon points="312.89 259.55 314.55 258.15 308.84 257.38 307.21 258.82 312.89 259.55" style="fill:#89909b; fill-rule:evenodd;"/></g></g><polygon points="283.6 246.46 302.28 250.96 295.91 256.22 273.8 257.47 278 250.3 283.6 246.46" style="fill:#1d2432; fill-rule:evenodd; opacity:.1;"/><g><polygon points="273.32 209.5 295.16 213.84 269.58 226.23 273.32 209.5" style="fill:#88619a; fill-rule:evenodd;"/><polygon points="250.03 214.45 273.32 209.5 273.75 219.5 262.85 220.44 250.03 214.45" style="fill:#6c4d7b; fill-rule:evenodd;"/><polygon points="250.03 214.45 273.75 219.5 278 231.01 273.8 257.47 259.21 255.05 253.31 228.95 255.31 226.43 252.19 223.97 250.03 214.45" style="fill:#88619a; fill-rule:evenodd;"/><polygon points="273.75 219.5 295.16 213.84 293.43 223.28 290.72 226.36 292.52 228.3 288.1 252.42 273.8 257.47 273.75 219.5" style="fill:#6c4d7b; fill-rule:evenodd;"/><polygon points="253.31 228.95 273.77 233.43 276.08 230.54 273.76 227.96 252.19 223.97 253.31 228.95" style="fill:#4fa9aa; fill-rule:evenodd;"/><polygon points="273.76 227.96 273.77 233.43 292.52 228.3 293.43 223.28 273.76 227.96" style="fill:#359496; fill-rule:evenodd;"/></g><polygon points="421.93 247.19 395.68 244.32 395.68 255.69 405.8 265.36 426.5 262.83 426.33 255.06 421.93 247.19" style="fill:#c3987b; fill-rule:evenodd;"/><polygon points="472.51 221.15 421.93 247.19 426.5 262.83 465.48 251.97 472.51 221.15" style="fill:#543042; fill-rule:evenodd;"/><polygon points="395.68 244.32 375.95 255.69 388.97 267.64 405.8 265.36 395.68 244.32" style="fill:#dfbda5; fill-rule:evenodd;"/><polygon points="359.15 240.31 329.23 248.95 332.43 240.19 340.16 238.23 359.15 240.31" style="fill:#1d2432; fill-rule:evenodd; opacity:.1;"/><polygon points="329.23 248.95 340.16 238.23 330.96 221.15 304.27 234.29 318.93 236.86 329.23 248.95" style="fill:#734d61; fill-rule:evenodd;"/><polygon points="328.13 205.29 329.23 248.95 304.27 234.29 311.74 202.3 320.51 197.56 328.13 205.29" style="fill:#96637c; fill-rule:evenodd;"/><polygon points="337.48 180.35 326.39 191.88 328.13 205.29 310.74 195.03 317.78 181.9 334.09 171.72 337.48 180.35" style="fill:#8b6651; fill-rule:evenodd;"/><polygon points="300.42 179.7 311.74 202.3 328.13 205.29 321.04 194.48 313.92 195.78 316.12 189.36 321.04 194.48 326.39 191.88 324 182.89 313.74 177.46 300.42 179.7" style="fill:#c3987b; fill-rule:evenodd;"/><polygon points="334.09 171.72 314.46 170.17 300.42 179.7 324 182.89 334.09 171.72" style="fill:#e8cab6; fill-rule:evenodd;"/><polygon points="314.46 170.17 324 161.95 334.09 171.72 314.46 170.17" style="fill:#c3987b; fill-rule:evenodd;"/></g></svg>